<svg width="20" height="20" viewBox="0 0 20 20" fill="none" xmlns="http://www.w3.org/2000/svg">
<path d="M16.875 11.25V3.75C16.875 3.41848 16.7433 3.10053 16.5089 2.86611C16.2745 2.63169 15.9565 2.5 15.625 2.5H4.375C4.04348 2.5 3.72554 2.63169 3.49112 2.86611C3.2567 3.10053 3.125 3.41848 3.125 3.75V11.25C3.125 11.5815 3.2567 11.8995 3.49112 12.1339C3.72554 12.3683 4.04348 12.5 4.375 12.5H6.25C6.41576 12.5 6.57473 12.4341 6.69194 12.3169C6.80915 12.1997 6.875 12.0408 6.875 11.875C6.875 11.7092 6.80915 11.5503 6.69194 11.4331C6.57473 11.3158 6.41576 11.25 6.25 11.25H4.375V3.75H15.625V11.25H13.75C13.5842 11.25 13.4253 11.3158 13.3081 11.4331C13.1908 11.5503 13.125 11.7092 13.125 11.875C13.125 12.0408 13.1908 12.1997 13.3081 12.3169C13.4253 12.4341 13.5842 12.5 13.75 12.5H15.625C15.9565 12.5 16.2745 12.3683 16.5089 12.1339C16.7433 11.8995 16.875 11.5815 16.875 11.25ZM7.31719 14.5578L9.375 16.6164V9.375C9.375 9.20924 9.44085 9.05026 9.55806 8.93305C9.67527 8.81584 9.83424 8.75 10 8.75C10.1658 8.75 10.3247 8.81584 10.4419 8.93305C10.5592 9.05026 10.625 9.20924 10.625 9.375V16.6164L12.6828 14.5578C12.8001 14.4405 12.9591 14.3746 13.125 14.3746C13.2909 14.3746 13.4499 14.4405 13.5672 14.5578C13.6845 14.6751 13.7503 14.8341 13.7503 15C13.7503 15.1658 13.6845 15.3249 13.5672 15.4422L10.4422 18.5672C10.3841 18.6253 10.3152 18.6714 10.2393 18.7028C10.1635 18.7343 10.0821 18.7505 10 18.7505C9.91787 18.7505 9.83654 18.7343 9.76066 18.7028C9.68479 18.6714 9.61586 18.6253 9.55781 18.5672L6.43281 15.4422C6.31554 15.3249 6.24965 15.1658 6.24965 15C6.24965 14.8341 6.31554 14.6751 6.43281 14.5578C6.55009 14.4405 6.70915 14.3746 6.875 14.3746C7.04085 14.3746 7.19991 14.4405 7.31719 14.5578Z" fill="white"/>
</svg>
