<svg width="220" height="220" viewBox="0 0 220 220" fill="none" xmlns="http://www.w3.org/2000/svg">
<g clip-path="url(#clip0_254_79)">
<rect width="220" height="220" fill="white"/>
<path d="M110 200C159.706 200 200 159.706 200 110C200 60.2944 159.706 20 110 20C60.2944 20 20 60.2944 20 110C20 159.706 60.2944 200 110 200Z" stroke="#E6EFE2"/>
<path d="M110 180C148.66 180 180 148.66 180 110C180 71.3401 148.66 40 110 40C71.3401 40 40 71.3401 40 110C40 148.66 71.3401 180 110 180Z" stroke="#E6EFE2"/>
<path d="M110 160C137.614 160 160 137.614 160 110C160 82.3858 137.614 60 110 60C82.3858 60 60 82.3858 60 110C60 137.614 82.3858 160 110 160Z" stroke="#E6EFE2"/>
<path d="M110 140C126.569 140 140 126.569 140 110C140 93.4315 126.569 80 110 80C93.4315 80 80 93.4315 80 110C80 126.569 93.4315 140 110 140Z" stroke="#E6EFE2"/>
<path d="M110 13L110 207" stroke="#57C84D" stroke-opacity="0.19"/>
<path d="M46.0674 46.0674L173.933 173.933" stroke="#EEF5EA"/>
<path d="M110 55L155 80L150 140L110 165L65 135L70 80L110 55Z" fill="#E0EDDA" stroke="#57C84D" stroke-width="3" stroke-linejoin="round"/>
<path d="M110 59.5C112.485 59.5 114.5 57.4853 114.5 55C114.5 52.5147 112.485 50.5 110 50.5C107.515 50.5 105.5 52.5147 105.5 55C105.5 57.4853 107.515 59.5 110 59.5Z" fill="#57C84D"/>
<path d="M155 84.5C157.485 84.5 159.5 82.4853 159.5 80C159.5 77.5147 157.485 75.5 155 75.5C152.515 75.5 150.5 77.5147 150.5 80C150.5 82.4853 152.515 84.5 155 84.5Z" fill="#57C84D"/>
<path d="M150 144.5C152.485 144.5 154.5 142.485 154.5 140C154.5 137.515 152.485 135.5 150 135.5C147.515 135.5 145.5 137.515 145.5 140C145.5 142.485 147.515 144.5 150 144.5Z" fill="#57C84D"/>
<path d="M110 169.5C112.485 169.5 114.5 167.485 114.5 165C114.5 162.515 112.485 160.5 110 160.5C107.515 160.5 105.5 162.515 105.5 165C105.5 167.485 107.515 169.5 110 169.5Z" fill="#57C84D"/>
<path d="M65 139.5C67.4853 139.5 69.5 137.485 69.5 135C69.5 132.515 67.4853 130.5 65 130.5C62.5147 130.5 60.5 132.515 60.5 135C60.5 137.485 62.5147 139.5 65 139.5Z" fill="#57C84D"/>
<path d="M70 84.5C72.4853 84.5 74.5 82.4853 74.5 80C74.5 77.5147 72.4853 75.5 70 75.5C67.5147 75.5 65.5 77.5147 65.5 80C65.5 82.4853 67.5147 84.5 70 84.5Z" fill="#57C84D"/>
<path d="M110 13C111.657 13 113 11.6569 113 10C113 8.34315 111.657 7 110 7C108.343 7 107 8.34315 107 10C107 11.6569 108.343 13 110 13Z" fill="#57C84D"/>
<path d="M110 213C111.657 213 113 211.657 113 210C113 208.343 111.657 207 110 207C108.343 207 107 208.343 107 210C107 211.657 108.343 213 110 213Z" fill="#57C84D"/>
<path d="M39.8096 39.8096L180.19 180.19" stroke="#57C84D" stroke-opacity="0.19"/>
<path d="M178.589 182.832C179.761 184.004 181.66 184.004 182.832 182.832C184.003 181.661 184.003 179.761 182.832 178.59C181.66 177.418 179.761 177.418 178.589 178.59C177.418 179.761 177.418 181.661 178.589 182.832Z" fill="#57C84D"/>
<path d="M37.1682 41.4103C38.3398 42.5819 40.2393 42.5819 41.4109 41.4103C42.5824 40.2388 42.5824 38.3393 41.4109 37.1677C40.2393 35.9961 38.3398 35.9961 37.1682 37.1677C35.9967 38.3393 35.9967 40.2388 37.1682 41.4103Z" fill="#57C84D"/>
<path d="M39.8096 180.19L180.19 39.8097" stroke="#EEF5EA"/>
<path d="M173.933 46.0674L46.0674 173.933" stroke="#57C84D" stroke-opacity="0.19"/>
<path d="M182.832 41.4109C184.004 40.2393 184.004 38.3398 182.832 37.1682C181.661 35.9967 179.761 35.9967 178.59 37.1682C177.418 38.3398 177.418 40.2393 178.59 41.4109C179.761 42.5824 181.661 42.5824 182.832 41.4109Z" fill="#57C84D"/>
<path d="M41.4106 182.832C42.5822 181.66 42.5822 179.761 41.4106 178.589C40.239 177.418 38.3395 177.418 37.168 178.589C35.9964 179.761 35.9964 181.66 37.168 182.832C38.3395 184.003 40.239 184.003 41.4106 182.832Z" fill="#57C84D"/>
<path d="M10.7358 110H209.264" stroke="#57C84D" stroke-opacity="0.19"/>
<path d="M210 113C211.657 113 213 111.657 213 110C213 108.343 211.657 107 210 107C208.343 107 207 108.343 207 110C207 111.657 208.343 113 210 113Z" fill="#57C84D"/>
<path d="M10 113C11.6569 113 13 111.657 13 110C13 108.343 11.6569 107 10 107C8.34315 107 7 108.343 7 110C7 111.657 8.34315 113 10 113Z" fill="#57C84D"/>
<path d="M110 113C111.657 113 113 111.657 113 110C113 108.343 111.657 107 110 107C108.343 107 107 108.343 107 110C107 111.657 108.343 113 110 113Z" fill="#57C84D"/>
</g>
<defs>
<clipPath id="clip0_254_79">
<rect width="220" height="220" fill="white"/>
</clipPath>
</defs>
</svg>
