<svg width="30" height="37" viewBox="0 0 30 37" fill="none" xmlns="http://www.w3.org/2000/svg">
<path d="M11.5109 7.00684L12.546 9.8816C13.114 11.4576 14.0227 12.8889 15.2073 14.0734C16.3918 15.258 17.8231 16.1666 19.3991 16.7346L22.2738 17.7698C22.3306 17.7906 22.3796 17.8284 22.4142 17.8779C22.4488 17.9275 22.4674 17.9865 22.4674 18.047C22.4674 18.1074 22.4488 18.1664 22.4142 18.216C22.3796 18.2656 22.3306 18.3033 22.2738 18.3241L19.3991 19.3593C17.8231 19.9273 16.3918 20.836 15.2073 22.0205C14.0227 23.2051 13.114 24.6363 12.546 26.2123L11.5109 29.0871C11.49 29.1439 11.4523 29.1929 11.4027 29.2275C11.3532 29.2621 11.2942 29.2807 11.2337 29.2807C11.1732 29.2807 11.1142 29.2621 11.0647 29.2275C11.0151 29.1929 10.9774 29.1439 10.9565 29.0871L9.92136 26.2123C9.35336 24.6363 8.44469 23.2051 7.26014 22.0205C6.07559 20.836 4.64431 19.9273 3.06834 19.3593L0.193574 18.3241C0.136809 18.3033 0.0878039 18.2656 0.0531844 18.216C0.0185648 18.1664 0 18.1074 0 18.047C0 17.9865 0.0185648 17.9275 0.0531844 17.8779C0.0878039 17.8284 0.136809 17.7906 0.193574 17.7698L3.06834 16.7346C4.64431 16.1666 6.07559 15.258 7.26014 14.0734C8.44469 12.8889 9.35336 11.4576 9.92136 9.8816L10.9565 7.00684C10.9768 6.9495 11.0143 6.89984 11.0639 6.86472C11.1136 6.8296 11.1729 6.81074 11.2337 6.81074C11.2945 6.81074 11.3538 6.8296 11.4035 6.86472C11.4531 6.89984 11.4906 6.9495 11.5109 7.00684ZM24.4512 0.0983785L24.9758 1.55381C25.2637 2.35174 25.7239 3.07641 26.3238 3.67623C26.9236 4.27606 27.6483 4.73628 28.4462 5.02415L29.9016 5.54883C29.9305 5.55933 29.9554 5.57844 29.973 5.60358C29.9906 5.62872 30 5.65866 30 5.68934C30 5.72003 29.9906 5.74997 29.973 5.77511C29.9554 5.80025 29.9305 5.81936 29.9016 5.82986L28.4462 6.35454C27.6483 6.64241 26.9236 7.10263 26.3238 7.70245C25.7239 8.30228 25.2637 9.02694 24.9758 9.82488L24.4512 11.2803C24.4407 11.3091 24.4216 11.334 24.3964 11.3516C24.3713 11.3692 24.3413 11.3787 24.3107 11.3787C24.28 11.3787 24.25 11.3692 24.2249 11.3516C24.1998 11.334 24.1806 11.3091 24.1701 11.2803L23.6455 9.82488C23.3576 9.02694 22.8974 8.30228 22.2975 7.70245C21.6977 7.10263 20.9731 6.64241 20.1751 6.35454L18.7197 5.82986C18.6909 5.81936 18.666 5.80025 18.6484 5.77511C18.6308 5.74997 18.6213 5.72003 18.6213 5.68934C18.6213 5.65866 18.6308 5.62872 18.6484 5.60358C18.666 5.57844 18.6909 5.55933 18.7197 5.54883L20.1751 5.02415C20.9731 4.73628 21.6977 4.27606 22.2975 3.67623C22.8974 3.07641 23.3576 2.35174 23.6455 1.55381L24.1701 0.0983785C24.1806 0.0695446 24.1998 0.0446385 24.2249 0.0270394C24.25 0.00944022 24.28 0 24.3107 0C24.3413 0 24.3713 0.00944022 24.3964 0.0270394C24.4216 0.0446385 24.4407 0.0695446 24.4512 0.0983785ZM24.4512 24.8149L24.9758 26.2703C25.2637 27.0683 25.7239 27.7929 26.3238 28.3928C26.9236 28.9926 27.6483 29.4528 28.4462 29.7407L29.9016 30.2654C29.9305 30.2759 29.9554 30.295 29.973 30.3201C29.9906 30.3452 30 30.3752 30 30.4059C30 30.4366 29.9906 30.4665 29.973 30.4916C29.9554 30.5168 29.9305 30.5359 29.9016 30.5464L28.4462 31.0711C27.6483 31.3589 26.9236 31.8192 26.3238 32.419C25.7239 33.0188 25.2637 33.7435 24.9758 34.5414L24.4512 35.9968C24.4407 36.0257 24.4216 36.0506 24.3964 36.0682C24.3713 36.0858 24.3413 36.0952 24.3107 36.0952C24.28 36.0952 24.25 36.0858 24.2249 36.0682C24.1998 36.0506 24.1806 36.0257 24.1701 35.9968L23.6455 34.5414C23.3576 33.7435 22.8974 33.0188 22.2975 32.419C21.6977 31.8192 20.9731 31.3589 20.1751 31.0711L18.7197 30.5464C18.6909 30.5359 18.666 30.5168 18.6484 30.4916C18.6308 30.4665 18.6213 30.4366 18.6213 30.4059C18.6213 30.3752 18.6308 30.3452 18.6484 30.3201C18.666 30.295 18.6909 30.2759 18.7197 30.2654L20.1751 29.7407C20.9731 29.4528 21.6977 28.9926 22.2975 28.3928C22.8974 27.7929 23.3576 27.0683 23.6455 26.2703L24.1701 24.8149C24.2178 24.6834 24.4048 24.6834 24.4512 24.8149Z" fill="#52AE28"/>
</svg>
