<svg width="50" height="47" viewBox="0 0 50 47" fill="none" xmlns="http://www.w3.org/2000/svg">
<path fill-rule="evenodd" clip-rule="evenodd" d="M46.5312 19.8281C46.7578 20.9992 46.875 22.2055 46.875 23.4375C46.875 34.6789 37.0469 43.75 25 43.75C21.0391 43.75 17.3203 42.7695 14.1094 41.0531C13.8862 40.9339 13.6375 40.8704 13.3844 40.8681C13.1314 40.8658 12.8816 40.9247 12.6563 41.0398C9.84376 42.4805 6.64845 43.2875 4.00782 43.7391C3.8663 43.7628 3.72095 43.7464 3.58834 43.6915C3.45573 43.6367 3.3412 43.5457 3.25782 43.4289C3.17663 43.3116 3.13057 43.1736 3.12504 43.0311C3.1195 42.8886 3.15472 42.7474 3.22657 42.6242V42.6156C4.67188 40.0375 5.57813 37.1016 6.13282 34.5469C6.21876 34.1555 6.14844 33.7461 5.93751 33.4039C4.14845 30.4609 3.12501 27.0602 3.12501 23.4375C3.12501 12.1961 12.9531 3.125 25 3.125C26.7656 3.125 28.4844 3.31953 30.125 3.6875C30.9688 3.875 31.8047 3.34453 31.9922 2.50313C32.1797 1.66172 31.6484 0.825004 30.8125 0.637504C28.9042 0.212697 26.955 -0.00108611 25 4.149e-06C11.1719 4.149e-06 9.02e-06 10.5328 9.02e-06 23.4375C9.02e-06 27.4258 1.06251 31.1836 2.94532 34.4766C2.44532 36.6102 1.6797 38.9844 0.500009 41.0875C0.139967 41.7263 -0.0317231 42.4541 0.00482431 43.1865C0.0413718 43.9189 0.284662 44.626 0.706514 45.2258C1.12837 45.8257 1.71152 46.2937 2.38843 46.5758C3.06533 46.8578 3.8083 46.9423 4.53126 46.8195C7.21876 46.3594 10.4297 45.5508 13.3516 44.1789C16.8281 45.8984 20.7969 46.875 25 46.875C38.8281 46.875 50 36.3422 50 23.4375C50 22.0031 49.8594 20.5984 49.6016 19.2344C49.5143 18.8356 49.2746 18.4867 48.9336 18.2623C48.5927 18.0378 48.1775 17.9555 47.7767 18.0331C47.3759 18.1106 47.0213 18.3417 46.7886 18.6771C46.5559 19.0125 46.4635 19.4256 46.5312 19.8281ZM25 20.3125C25.8288 20.3125 26.6237 20.6417 27.2097 21.2278C27.7958 21.8138 28.125 22.6087 28.125 23.4375C28.125 24.2663 27.7958 25.0612 27.2097 25.6472C26.6237 26.2333 25.8288 26.5625 25 26.5625C24.1712 26.5625 23.3763 26.2333 22.7903 25.6472C22.2042 25.0612 21.875 24.2663 21.875 23.4375C21.875 22.6087 22.2042 21.8138 22.7903 21.2278C23.3763 20.6417 24.1712 20.3125 25 20.3125ZM13.2813 20.3125C14.1101 20.3125 14.9049 20.6417 15.491 21.2278C16.077 21.8138 16.4063 22.6087 16.4063 23.4375C16.4063 24.2663 16.077 25.0612 15.491 25.6472C14.9049 26.2333 14.1101 26.5625 13.2813 26.5625C12.4525 26.5625 11.6576 26.2333 11.0715 25.6472C10.4855 25.0612 10.1563 24.2663 10.1563 23.4375C10.1563 22.6087 10.4855 21.8138 11.0715 21.2278C11.6576 20.6417 12.4525 20.3125 13.2813 20.3125ZM34.8516 2.37266L33.2344 6.65313C33.2344 6.65782 33.2344 6.6625 33.2266 6.66641C33.2266 6.66953 33.2188 6.67266 33.2188 6.67422L28.9375 8.28828C28.24 8.55094 27.6391 9.01999 27.215 9.63289C26.7909 10.2458 26.5637 10.9734 26.5637 11.7188C26.5637 12.4641 26.7909 13.1917 27.215 13.8046C27.6391 14.4175 28.24 14.8866 28.9375 15.1492L33.2188 16.7633C33.2188 16.7648 33.2266 16.768 33.2266 16.7711C33.2344 16.775 33.2344 16.7797 33.2344 16.7844L34.8516 21.0648C35.3906 22.4922 36.7578 23.4375 38.2813 23.4375C39.8047 23.4375 41.1719 22.4922 41.7109 21.0648L43.3281 16.7844C43.3281 16.7797 43.3281 16.775 43.3359 16.7711C43.3359 16.768 43.3437 16.7648 43.3437 16.7633L47.625 15.1492C48.3225 14.8866 48.9234 14.4175 49.3475 13.8046C49.7716 13.1917 49.9988 12.4641 49.9988 11.7188C49.9988 10.9734 49.7716 10.2458 49.3475 9.63289C48.9234 9.01999 48.3225 8.55094 47.625 8.28828L43.3437 6.67422C43.3437 6.67266 43.3359 6.66953 43.3359 6.66641C43.3281 6.6625 43.3281 6.65782 43.3281 6.65313L41.7109 2.37266C41.1719 0.945317 39.8047 4.149e-06 38.2813 4.149e-06C36.7578 4.149e-06 35.3906 0.945317 34.8516 2.37266ZM37.7734 3.475C37.8516 3.26407 38.0547 3.125 38.2813 3.125C38.5078 3.125 38.7109 3.26407 38.7891 3.475L40.3984 7.75625C40.5625 8.17657 40.8047 8.55782 41.125 8.87578C41.4453 9.19375 41.8203 9.43985 42.2422 9.59844L46.5234 11.2125C46.7344 11.2922 46.875 11.4938 46.875 11.7188C46.875 11.9438 46.7344 12.1453 46.5234 12.225L42.2422 13.8391C41.8203 13.9977 41.4453 14.2438 41.125 14.5617C40.8047 14.8797 40.5625 15.2609 40.3984 15.6813L38.7891 19.9625C38.7109 20.1734 38.5078 20.3125 38.2813 20.3125C38.0547 20.3125 37.8516 20.1734 37.7734 19.9625L36.1641 15.6813C36 15.2609 35.7578 14.8797 35.4375 14.5617C35.1172 14.2438 34.7422 13.9977 34.3203 13.8391L30.0391 12.225C29.8281 12.1453 29.6875 11.9438 29.6875 11.7188C29.6875 11.4938 29.8281 11.2922 30.0391 11.2125L34.3203 9.59844C34.7422 9.43985 35.1172 9.19375 35.4375 8.87578C35.7578 8.55782 36 8.17657 36.1641 7.75625L37.7734 3.475Z" fill="#5CBA42"/>
</svg>
